PathFileType	4	(X/Y/Z)	C:/Users/beibeiliu/ov580/test_trc\sequence.13_training_dense_left.trc
DataRate	CameraRate	NumFrames	NumMarkers	Units	OrigDataRate	OrigDataStartFrame	OrigNumFrames
120	120	12	19	mm	120	1	53
Frame#	Time	ThumbCMC			ThumbMCP			ThumbIP			ThumbTip			IndexMCP			IndexPIP			IndexTip			MiddleMCP			MiddlePIP			MiddleTip			RingMCP			RingPIP			RingTip			PinkyMCP			PinkyPIP			PinkyTip			BackHand1			BackHand2			BackHand3	
		X0	Y0	Z0	X1	Y1	Z1	X2	Y2	Z2	X3	Y3	Z3	X4	Y4	Z4	X5	Y5	Z5	X6	Y6	Z6	X7	Y7	Z7	X8	Y8	Z8	X9	Y9	Z9	X10	Y10	Z10	X11	Y11	Z11	X12	Y12	Z12	X13	Y13	Z13	X14	Y14	Z14	X15	Y15	Z15	X16	Y16	Z16	X17	Y17	Z17	X18	Y18	Z18	
0	0	-104.802	-15.0237	161.396	-90.2192	-48.3583	154.218	-78.7437	-70.715	137.642	-88.5201	-89.6541	114.076	-94.5617	-25.0314	88.6085	-77.6275	-40.3036	73.4051	-62.0508	-65.3128	60.3661	-114.086	-34.5759	77.1644	-103.885	-52.4774	55.8759	-90.9832	-77.6122	42.4756	-124.875	-53.3983	81.1862	-111.582	-77.7773	76.7218	-97.4461	-96.8437	99.9545	-151.453	-62.0137	90.3385	-146.986	-76.1985	78.134	-140.816	-90.4669	57.2339	-153.158	-19.782	115.073	-167.153	-6.89315	144.734	-133.702	2.51115	133.204	
1	0.00833333	-113.786	0.0896211	157.039	-89.1303	-26.2965	154.1	-77.7282	-46.1426	139.794	-76.9219	-68.9896	121.184	-98.7516	-15.4587	86.9145	-77.6996	-30.2949	72.3647	-58.7951	-49.8126	63.7208	-112.465	-30.7438	76.3827	-99.6985	-45.0884	61.3754	-79.7329	-69.0937	49.3204	-124.401	-51.5606	84.553	-99.5846	-68.6018	82.9053	-79.2243	-80.458	111.888	-142.012	-60.3974	97.8153	-130.037	-80.2945	80.7231	-123.292	-92.5825	65.9397	-159.824	-22.7643	117.758	-173.438	-9.34177	139.541	-143.273	6.73649	128.528	
2	0.0166667	-127.029	17.3925	151.18	-96.9693	0.429361	150.335	-72.6105	-17.5073	135.195	-70.0241	-36.5319	123.489	-103.099	1.1773	78.9272	-85.4142	-10.7665	68.5516	-62.0041	-19.734	60.0521	-118.931	-22.6529	75.498	-98.1569	-34.1667	59.2456	-73.0683	-47.536	49.3771	-119.529	-38.6757	85.2089	-87.3958	-52.9014	86.3083	-68.7488	-53.8128	112.444	-133.847	-57.4516	97.3978	-116.463	-71.9347	85.7102	-101.616	-82.3645	72.246	-163.137	-24.4351	114.575	-178.026	-12.9934	137.078	-158.505	9.63323	124.35	
3	0.025	-141.271	30.0226	136.789	-109.594	21.8767	136.247	-84.8625	12.8514	124.212	-72.8601	-4.25947	114.181	-121.641	7.77395	69.5569	-97.9139	7.12395	54.7609	-77.7045	-2.99276	49.571	-127.786	-14.863	69.9651	-103.041	-24.1057	51.48	-76.3644	-31.263	42.4351	-119.379	-30.8241	78.9643	-87.2269	-33.8673	79.7806	-68.7293	-24.0212	99.2188	-127.765	-46.7023	96.6198	-108.474	-56.0104	82.096	-92.7629	-67.1671	68.1369	-162.954	-27.4953	110.795	-181.995	-24.2139	134.939	-171.311	6.73009	115.491	
4	0.0333333	-164.886	26.5756	130.961	-129.452	34.2883	121.559	-105.176	35.0815	109.221	-86.8316	19.0475	96.6388	-146.874	9.35388	61.4576	-126.397	10.4532	45.3485	-102.546	12.8927	33.2305	-139.37	-15.4865	57.8004	-115.264	-16.1759	41.0974	-92.2666	-15.9842	30.5721	-125.018	-30.7535	75.57	-94.9679	-16.7296	69.7458	-79.5975	1.01245	91.5135	-123.971	-47.6367	92.8545	-108.982	-46.2971	78.0701	-91.7378	-56.0691	61.9621	-166.974	-35.5996	109.982	-183.707	-29.4853	133.15	-183.754	-4.86324	113.166	
5	0.0416667	-180.336	14.1797	121.849	-151.807	28.1634	111.312	-129.197	32.3166	92.1866	-109.149	25.0883	79.18	-169.204	-5.52084	57.0833	-146.042	-2.19037	36.335	-129.663	5.76999	22.5188	-151.824	-30.3799	56.9045	-134.891	-25.9385	35.9421	-109.364	-20.1788	21.6722	-133.65	-36.8562	71.2069	-108.16	-17.269	61.6584	-97.3991	5.69486	76.2925	-129.008	-49.3993	88.6812	-115.592	-47.6114	74.3128	-96.9018	-53.4459	56.5888	-172.102	-45.2944	113.711	-182.827	-44.9167	138.919	-195.947	-20.5861	114.253	
6	0.05	-196.296	2.34512	118.508	-170.395	19.1754	101.227	-152.853	22.6449	84.5358	-134.715	15.7333	66.7765	-183.672	-27.6729	52.5707	-174.079	-19.6739	33.4409	-153.787	-12.3256	16.0667	-167.095	-47.9313	55.4986	-156.081	-43.2888	33.5421	-132.762	-32.6718	11.2443	-151.793	-46.9725	67.9994	-129.108	-29.6884	51.7923	-120.923	3.39317	60.6936	-136.169	-58.8493	86.0221	-122.929	-57.4399	64.5934	-110.434	-61.5064	46.9383	-176.959	-55.0105	116.253	-184.014	-56.2157	144.381	-203.951	-40.1641	119.545	
7	0.0583333	-209.834	-5.84483	122.208	-187.044	9.4811	97.652	-171.595	11.6062	69.8376	-155.321	3.36823	53.4358	-206.679	-44.5975	55.4364	-196.129	-37.15	28.801	-178.554	-31.0606	12.993	-189.548	-62.8193	56.7239	-179.061	-61.4878	32.2702	-161.647	-46.3221	4.55477	-170.487	-61.0981	65.0916	-149.191	-46.0084	45.0123	-141.28	-15.9105	47.1737	-152.65	-70.8514	80.4056	-144.684	-69.8409	61.8904	-132.242	-72.9473	35.8608	-183.137	-66.5948	119.844	-189.566	-61.7731	145.498	-216.792	-48.2058	122.983	
8	0.0666667	-215.663	-6.07863	120.597	-194.381	3.78015	93.2969	-183.092	2.15414	69.4173	-169.42	-11.4704	48.563	-227.887	-46.5329	61.5686	-218.044	-42.9017	30.2747	-202.634	-30.0943	9.84221	-213.598	-65.7283	62.419	-201.472	-67.947	30.3735	-187.015	-53.4035	7.03605	-190.761	-67.8436	63.237	-173.904	-55.6104	40.1883	-163.918	-23.143	38.2756	-173.221	-75.7841	82.2326	-167.994	-77.3662	58.7448	-158	-80.066	31.7273	-199.578	-66.6747	118.36	-199.158	-61.0354	149.327	-225.625	-45.5179	127.859	
9	0.075	-214.668	2.97948	124.856	-193.619	14.9703	93.6927	-184.043	13.0557	69.2425	-174.112	-6.70108	52.9749	-238.527	-30.0016	62.1573	-229.726	-31.2631	35.9819	-210.376	-21.0263	13.9856	-229.567	-51.8933	60.3686	-221.609	-52.6461	30.6112	-200.348	-38.8736	9.89507	-209.461	-57.3957	60.8506	-190.088	-52.7194	37.9657	-172.871	-23.5022	35.0775	-192.071	-66.7514	79.4642	-182.988	-71.8271	52.3168	-175.479	-69.7389	28.1931	-210.376	-60.18	118.126	-210.188	-55.1553	144.431	-233.396	-31.8517	129.704	
10	0.0833333	-207.986	17.7067	124.973	-185.061	24.2396	97.9267	-175.234	20.7751	71.053	-169.533	0.0988203	51.6955	-235.228	-9.82452	62.3042	-229.13	-6.84474	35.294	-204.104	-0.7274	15.42	-232.097	-32.3198	58.2684	-223.508	-31.6019	30.9071	-195.338	-20.8093	14.0465	-210.923	-45.755	62.2293	-196.213	-39.1411	36.1189	-172.574	-12.9673	33.7014	-198.011	-54.1458	76.261	-189.65	-58.545	49.0284	-177.636	-52.7587	26.1686	-215.424	-45.8966	116.269	-213.818	-42.1503	141.34	-232.166	-16.9509	128.636	
11	0.0916667	-193.858	25.2091	131.693	-170.246	35.9824	103.331	-161.573	32.2626	75.991	-160.575	8.55215	59.8123	-225.95	11.0774	63.5703	-216.92	13.5544	35.2974	-194.813	15.6435	19.8954	-224.671	-11.6086	61.2194	-213.636	-12.4051	29.522	-181.349	0.705364	17.6238	-208.404	-28.7478	64.1731	-194.535	-22.4969	36.8638	-165.435	-6.52125	35.9052	-196.897	-40.7115	70.1027	-187.262	-42.9912	49.643	-167.225	-36.698	25.5645	-214.38	-32.6482	113.703	-211.293	-33.2001	142.766	-223.64	1.51368	127.625	
